<svg width="130" height="130" viewBox="0 0 130 130" fill="none" xmlns="http://www.w3.org/2000/svg">
    <path d="M59.5824 108.333C50.071 108.362 40.8963 104.815 33.8777 98.3957C26.8591 91.9765 22.5095 83.1539 21.6914 73.6778C20.8733 64.2016 23.6465 54.7641 29.4611 47.237C35.2757 39.7099 43.7068 34.643 53.0824 33.0413C83.9574 27.083 92.0824 24.2663 102.916 10.833C108.332 21.6663 113.749 33.4747 113.749 54.1663C113.749 83.958 87.8574 108.333 59.5824 108.333Z" stroke="#EDEAF0" stroke-opacity="0.4" stroke-width="12.5" stroke-linecap="round" stroke-linejoin="round"/>
    <path d="M10.832 113.75C10.832 97.5 20.8529 84.7167 38.3487 81.25C51.457 78.65 64.9987 70.4167 70.4154 65" stroke="#EDEAF0" stroke-opacity="0.4" stroke-width="12.5" stroke-linecap="round" stroke-linejoin="round"/>
</svg>
