<svg width="19" height="20" viewBox="0 0 19 20" fill="none" xmlns="http://www.w3.org/2000/svg">
    <path fill-rule="evenodd" clip-rule="evenodd" d="M9.3776 2.50016C5.23547 2.50016 1.8776 5.85803 1.8776 10.0002C1.8776 14.1423 5.23547 17.5002 9.3776 17.5002C13.5197 17.5002 16.8776 14.1423 16.8776 10.0002C16.8776 5.85803 13.5197 2.50016 9.3776 2.50016ZM0.210938 10.0002C0.210938 4.93755 4.31499 0.833496 9.3776 0.833496C14.4402 0.833496 18.5443 4.93755 18.5443 10.0002C18.5443 15.0628 14.4402 19.1668 9.3776 19.1668C4.31499 19.1668 0.210938 15.0628 0.210938 10.0002ZM6.28835 6.91091C6.61378 6.58547 7.14142 6.58547 7.46686 6.91091L9.3776 8.82165L11.2883 6.91091C11.6138 6.58547 12.1414 6.58547 12.4669 6.91091C12.7923 7.23634 12.7923 7.76398 12.4669 8.08942L10.5561 10.0002L12.4669 11.9109C12.7923 12.2363 12.7923 12.764 12.4669 13.0894C12.1414 13.4149 11.6138 13.4149 11.2883 13.0894L9.3776 11.1787L7.46686 13.0894C7.14142 13.4149 6.61378 13.4149 6.28835 13.0894C5.96291 12.764 5.96291 12.2363 6.28835 11.9109L8.19909 10.0002L6.28835 8.08942C5.96291 7.76398 5.96291 7.23634 6.28835 6.91091Z" fill="#202020"/>
</svg>
