<svg width="16" height="16" viewBox="0 0 16 16" fill="none" xmlns="http://www.w3.org/2000/svg">
    <path d="M14.4062 9.74431L14.5595 8.32348C14.6403 7.56515 14.6945 7.06515 14.652 6.75015H14.667C14.9522 6.75007 15.2289 6.65244 15.451 6.47346C15.6731 6.29449 15.8273 6.04493 15.888 5.76623C15.9487 5.48752 15.9123 5.19643 15.7848 4.94129C15.6572 4.68614 15.4463 4.48228 15.1869 4.36356C14.9276 4.24484 14.6354 4.21839 14.3589 4.28862C14.0825 4.35884 13.8383 4.5215 13.6671 4.7496C13.4958 4.9777 13.4077 5.25752 13.4174 5.54259C13.4271 5.82767 13.534 6.10086 13.7203 6.31681C13.4487 6.48431 13.0937 6.83848 12.5595 7.37098C12.147 7.78181 11.9412 7.98681 11.7112 8.01848C11.5837 8.03607 11.4539 8.01789 11.3362 7.96598C11.1245 7.87265 10.9828 7.61931 10.7003 7.11181L9.20866 4.43765C9.03449 4.12515 8.88866 3.86265 8.75699 3.65265C9.09055 3.48269 9.35717 3.20537 9.5139 2.8654C9.67063 2.52542 9.70833 2.14258 9.62094 1.77856C9.53354 1.41454 9.32614 1.09054 9.03214 0.858779C8.73815 0.627014 8.37469 0.500977 8.00032 0.500977C7.62596 0.500977 7.2625 0.627014 6.9685 0.858779C6.67451 1.09054 6.4671 1.41454 6.37971 1.77856C6.29231 2.14258 6.33002 2.52542 6.48675 2.8654C6.64347 3.20537 6.9101 3.48269 7.24366 3.65265C7.11199 3.86348 6.96616 4.12515 6.79116 4.43765L5.30032 7.11181C5.01699 7.61931 4.87532 7.87265 4.66366 7.96598C4.54594 8.01789 4.41611 8.03607 4.28866 8.01848C4.05949 7.98681 3.85366 7.78181 3.44116 7.37098C2.90699 6.83848 2.55199 6.48431 2.28032 6.31681C2.46668 6.10086 2.57358 5.82767 2.58327 5.54259C2.59295 5.25752 2.50485 4.9777 2.33358 4.7496C2.16231 4.5215 1.91817 4.35884 1.64171 4.28862C1.36525 4.21839 1.07308 4.24484 0.813719 4.36356C0.554357 4.48228 0.343401 4.68614 0.215873 4.94129C0.0883445 5.19643 0.0519157 5.48752 0.112634 5.76623C0.173352 6.04493 0.327566 6.29449 0.549671 6.47346C0.771777 6.65244 1.04841 6.75007 1.33366 6.75015H1.34866C1.30616 7.06515 1.36032 7.56598 1.44116 8.32348L1.59449 9.74431C1.67949 10.5326 1.74949 11.2835 1.83616 11.9585H14.1645C14.2512 11.2835 14.3212 10.5335 14.4062 9.74431ZM7.09366 15.5001H8.90699C11.2703 15.5001 12.452 15.5001 13.2403 14.7943C13.5845 14.486 13.802 13.931 13.9595 13.2085H2.04116C2.19866 13.931 2.41616 14.4868 2.76032 14.7943C3.54866 15.5001 4.73032 15.5001 7.09366 15.5001Z" fill="#DDB342"/>
</svg>
