<svg width="30" height="30" viewBox="0 0 30 30" fill="none" xmlns="http://www.w3.org/2000/svg">
    <path fill-rule="evenodd" clip-rule="evenodd" d="M14.9997 3.00016C8.37226 3.00016 2.99967 8.37274 2.99967 15.0002C2.99967 21.6276 8.37226 27.0002 14.9997 27.0002C21.6271 27.0002 26.9997 21.6276 26.9997 15.0002C26.9997 8.37274 21.6271 3.00016 14.9997 3.00016ZM0.333008 15.0002C0.333008 6.89999 6.8995 0.333496 14.9997 0.333496C23.0998 0.333496 29.6663 6.89999 29.6663 15.0002C29.6663 23.1003 23.0998 29.6668 14.9997 29.6668C6.8995 29.6668 0.333008 23.1003 0.333008 15.0002ZM14.9997 8.3335C15.7361 8.3335 16.333 8.93045 16.333 9.66683V17.1145L19.3902 14.0574C19.9109 13.5367 20.7551 13.5367 21.2758 14.0574C21.7965 14.5781 21.7965 15.4223 21.2758 15.943L15.9425 21.2763C15.4218 21.797 14.5776 21.797 14.0569 21.2763L8.72353 15.943C8.20283 15.4223 8.20283 14.5781 8.72353 14.0574C9.24423 13.5367 10.0885 13.5367 10.6091 14.0574L13.6663 17.1145V9.66683C13.6663 8.93045 14.2633 8.3335 14.9997 8.3335Z" fill="#202020"/>
</svg>
