<svg width="20" height="20" viewBox="0 0 20 20" fill="none" xmlns="http://www.w3.org/2000/svg">
    <path fill-rule="evenodd" clip-rule="evenodd" d="M2.58947 4.62829L10.0007 9.81612L17.4118 4.62829C17.274 4.35577 16.9906 4.16667 16.6673 4.16667H3.33398C3.01068 4.16667 2.72728 4.35577 2.58947 4.62829ZM17.5006 6.60055L10.4785 11.516C10.1916 11.7169 9.8097 11.7169 9.52277 11.516L2.50065 6.60055V15C2.50065 15.4564 2.87755 15.8333 3.33398 15.8333H16.6673C17.1237 15.8333 17.5006 15.4564 17.5006 15V6.60055ZM0.833984 5C0.833984 3.6231 1.95708 2.5 3.33398 2.5H16.6673C18.0442 2.5 19.1673 3.6231 19.1673 5V15C19.1673 16.3769 18.0442 17.5 16.6673 17.5H3.33398C1.95708 17.5 0.833984 16.3769 0.833984 15V5Z" fill="white"/>
</svg>
