<svg width="16" height="20" viewBox="0 0 16 20" fill="none" xmlns="http://www.w3.org/2000/svg">
    <path fill-rule="evenodd" clip-rule="evenodd" d="M1.23223 1.56573C1.70107 1.09689 2.33696 0.833496 3 0.833496H8.83333C9.05435 0.833496 9.26631 0.921293 9.42259 1.07757L15.2559 6.91091C15.4122 7.06719 15.5 7.27915 15.5 7.50016V16.6668C15.5 17.3299 15.2366 17.9658 14.7678 18.4346C14.2989 18.9034 13.663 19.1668 13 19.1668H3C2.33696 19.1668 1.70107 18.9034 1.23223 18.4346C0.763392 17.9658 0.5 17.3299 0.5 16.6668V3.3335C0.5 2.67046 0.763392 2.03457 1.23223 1.56573ZM3 2.50016C2.77899 2.50016 2.56702 2.58796 2.41074 2.74424C2.25446 2.90052 2.16667 3.11248 2.16667 3.3335V16.6668C2.16667 16.8878 2.25446 17.0998 2.41074 17.2561C2.56702 17.4124 2.77899 17.5002 3 17.5002H13C13.221 17.5002 13.433 17.4124 13.5893 17.2561C13.7455 17.0998 13.8333 16.8878 13.8333 16.6668V7.84534L8.48816 2.50016H3Z" fill="#ADADAD"/>
    <path fill-rule="evenodd" clip-rule="evenodd" d="M8.83333 0.833496C9.29357 0.833496 9.66667 1.20659 9.66667 1.66683V6.66683H14.6667C15.1269 6.66683 15.5 7.03993 15.5 7.50016C15.5 7.9604 15.1269 8.3335 14.6667 8.3335H8.83333C8.3731 8.3335 8 7.9604 8 7.50016V1.66683C8 1.20659 8.3731 0.833496 8.83333 0.833496Z" fill="#ADADAD"/>
</svg>