<svg width="14" height="21" viewBox="0 0 14 21" fill="none" xmlns="http://www.w3.org/2000/svg">
    <path fill-rule="evenodd" clip-rule="evenodd" d="M6.9987 2.16667C4.23727 2.16667 1.9987 4.40524 1.9987 7.16667C1.9987 9.92809 4.23727 12.1667 6.9987 12.1667C7.96857 12.1667 8.87394 11.8905 9.64048 11.4126C9.68189 11.3798 9.72661 11.3508 9.77418 11.3262C11.1155 10.4295 11.9987 8.90122 11.9987 7.16667C11.9987 4.40524 9.76012 2.16667 6.9987 2.16667ZM11.0501 12.4615C12.6401 11.2431 13.6654 9.32461 13.6654 7.16667C13.6654 3.48477 10.6806 0.5 6.9987 0.5C3.3168 0.5 0.332031 3.48477 0.332031 7.16667C0.332031 9.32504 1.35773 11.2438 2.94828 12.4622L2.00595 19.5569C1.96382 19.8742 2.10705 20.1875 2.3745 20.3632C2.64195 20.5389 2.98638 20.5459 3.26078 20.3812L6.9987 18.1385L10.7366 20.3812C11.011 20.5459 11.3554 20.5389 11.6228 20.3632C11.8903 20.1875 12.0335 19.8743 11.9915 19.5571L11.0501 12.4615ZM9.48711 13.3534C8.71823 13.663 7.87836 13.8333 6.9987 13.8333C6.11937 13.8333 5.27981 13.6631 4.51117 13.3538L3.88573 18.0626L6.56995 16.4521C6.83385 16.2937 7.16354 16.2937 7.42744 16.4521L10.1119 18.0628L9.48711 13.3534Z" fill="#F4B200"/>
</svg>
