<svg width="22" height="22" viewBox="0 0 22 22" fill="none" xmlns="http://www.w3.org/2000/svg">
    <path d="M12.1136 0.167837C12.9042 0.164803 13.6947 0.172749 14.4851 0.19167L14.6952 0.199254C14.9379 0.20792 15.1773 0.218754 15.4666 0.231754C16.6192 0.28592 17.4057 0.46792 18.0958 0.735504C18.8108 1.01067 19.4131 1.38334 20.0155 1.98567C20.5662 2.52691 20.9925 3.18161 21.2646 3.90425C21.5321 4.59434 21.7141 5.38192 21.7683 6.53459C21.7813 6.82275 21.7921 7.06325 21.8008 7.30592L21.8073 7.51609C21.8266 8.30605 21.8349 9.09623 21.8322 9.88642L21.8333 10.6946V12.1138C21.836 12.9043 21.8277 13.6949 21.8084 14.4852L21.8019 14.6953C21.7932 14.938 21.7824 15.1774 21.7694 15.4667C21.7152 16.6193 21.5311 17.4058 21.2646 18.0959C20.9933 18.8193 20.567 19.4746 20.0155 20.0156C19.4738 20.5663 18.8187 20.9925 18.0958 21.2647C17.4057 21.5323 16.6192 21.7143 15.4666 21.7684C15.1773 21.7814 14.9379 21.7923 14.6952 21.8009L14.4851 21.8074C13.6947 21.8267 12.9042 21.835 12.1136 21.8323L11.3055 21.8334H9.88739C9.09684 21.8361 8.30629 21.8278 7.51597 21.8085L7.30581 21.802C7.04863 21.7927 6.79152 21.7818 6.53447 21.7695C5.38181 21.7153 4.59531 21.5312 3.90414 21.2647C3.18121 20.9931 2.5264 20.5668 1.98556 20.0156C1.43419 19.4742 1.00755 18.8191 0.735391 18.0959C0.467807 17.4058 0.285807 16.6193 0.231641 15.4667C0.219575 15.2096 0.208742 14.9525 0.199141 14.6953L0.193724 14.4852C0.173751 13.6949 0.164723 12.9043 0.166641 12.1138V9.88642C0.163617 9.09624 0.171562 8.30605 0.190474 7.51609L0.198057 7.30592C0.206724 7.06325 0.217557 6.82275 0.230557 6.53459C0.284724 5.38084 0.466724 4.59542 0.734307 3.90425C1.00663 3.18126 1.4341 2.52674 1.98664 1.98675C2.52711 1.43507 3.18152 1.00804 3.90414 0.735504C4.59531 0.46792 5.38072 0.28592 6.53447 0.231754L7.30581 0.199254L7.51597 0.193837C8.30592 0.173874 9.09611 0.164845 9.88631 0.166754L12.1136 0.167837ZM11 5.5845C10.2823 5.57435 9.56971 5.70695 8.9037 5.97458C8.23769 6.24221 7.63151 6.63954 7.12039 7.14348C6.60927 7.64742 6.20341 8.24792 5.92638 8.91008C5.64936 9.57224 5.50671 10.2829 5.50671 11.0006C5.50671 11.7184 5.64936 12.429 5.92638 13.0912C6.20341 13.7533 6.60927 14.3538 7.12039 14.8578C7.63151 15.3617 8.23769 15.7591 8.9037 16.0267C9.56971 16.2943 10.2823 16.4269 11 16.4168C12.4366 16.4168 13.8143 15.8461 14.8301 14.8302C15.846 13.8144 16.4166 12.4367 16.4166 11.0001C16.4166 9.5635 15.846 8.18575 14.8301 7.16993C13.8143 6.1541 12.4366 5.5845 11 5.5845ZM11 7.75117C11.4317 7.74322 11.8607 7.82137 12.2618 7.98106C12.663 8.14076 13.0283 8.37879 13.3365 8.68126C13.6446 8.98373 13.8894 9.34457 14.0565 9.74271C14.2237 10.1408 14.3098 10.5683 14.3098 11.0001C14.3099 11.4319 14.2239 11.8593 14.057 12.2575C13.89 12.6557 13.6453 13.0166 13.3373 13.3192C13.0292 13.6218 12.664 13.8599 12.2628 14.0198C11.8617 14.1796 11.4328 14.2579 11.0011 14.2501C10.1391 14.2501 9.31245 13.9077 8.70296 13.2982C8.09347 12.6887 7.75106 11.862 7.75106 11.0001C7.75106 10.1381 8.09347 9.31148 8.70296 8.70199C9.31245 8.0925 10.1391 7.75009 11.0011 7.75009L11 7.75117ZM16.6875 3.9595C16.338 3.97349 16.0075 4.12217 15.7651 4.37439C15.5228 4.62661 15.3875 4.96282 15.3875 5.31259C15.3875 5.66236 15.5228 5.99856 15.7651 6.25078C16.0075 6.50301 16.338 6.65168 16.6875 6.66567C17.0466 6.66567 17.3911 6.523 17.645 6.26904C17.899 6.01509 18.0416 5.67065 18.0416 5.3115C18.0416 4.95236 17.899 4.60792 17.645 4.35396C17.3911 4.10001 17.0466 3.95734 16.6875 3.95734V3.9595Z" fill="#202020"/>
</svg>