<svg width="21" height="20" viewBox="0 0 21 20" fill="none" xmlns="http://www.w3.org/2000/svg">
    <path fill-rule="evenodd" clip-rule="evenodd" d="M12.3639 2.74408C12.6893 2.41864 13.2169 2.41864 13.5424 2.74408L17.709 6.91074C18.0345 7.23618 18.0345 7.76382 17.709 8.08926L13.5424 12.2559C13.2169 12.5814 12.6893 12.5814 12.3639 12.2559C12.0384 11.9305 12.0384 11.4028 12.3639 11.0774L15.1079 8.33333H7.11979C6.45675 8.33333 5.82087 8.59673 5.35202 9.06557C4.88318 9.53441 4.61979 10.1703 4.61979 10.8333V16.6667C4.61979 17.1269 4.2467 17.5 3.78646 17.5C3.32622 17.5 2.95312 17.1269 2.95312 16.6667V10.8333C2.95312 9.72826 3.39211 8.66846 4.17351 7.88705C4.95491 7.10565 6.01472 6.66667 7.11979 6.66667H15.1079L12.3639 3.92259C12.0384 3.59715 12.0384 3.06951 12.3639 2.74408Z" fill="white"/>
</svg>
