<svg width="20" height="20" viewBox="0 0 20 20" fill="none" xmlns="http://www.w3.org/2000/svg">
    <path fill-rule="evenodd" clip-rule="evenodd" d="M3.48301 2.49967C2.93993 2.49967 2.49967 2.93993 2.49967 3.48301V4.99967H4.99967V2.49967H3.48301ZM3.48301 0.833008C2.01945 0.833008 0.833008 2.01945 0.833008 3.48301V16.5163C0.833008 17.9799 2.01945 19.1663 3.48301 19.1663H16.5163C17.9799 19.1663 19.1663 17.9799 19.1663 16.5163V3.48301C19.1663 2.01945 17.9799 0.833008 16.5163 0.833008H3.48301ZM6.66634 2.49967V9.16634H13.333V2.49967H6.66634ZM14.9997 2.49967V4.99967H17.4997V3.48301C17.4997 2.93993 17.0594 2.49967 16.5163 2.49967H14.9997ZM17.4997 6.66634H14.9997V9.16634H17.4997V6.66634ZM17.4997 10.833H14.9997V13.333H17.4997V10.833ZM17.4997 14.9997H14.9997V17.4997H16.5163C17.0594 17.4997 17.4997 17.0594 17.4997 16.5163V14.9997ZM13.333 17.4997V10.833H6.66634V17.4997H13.333ZM4.99967 17.4997V14.9997H2.49967V16.5163C2.49967 17.0594 2.93993 17.4997 3.48301 17.4997H4.99967ZM2.49967 13.333H4.99967V10.833H2.49967V13.333ZM2.49967 9.16634H4.99967V6.66634H2.49967V9.16634Z" fill="#D6CDE1"/>
</svg>