<svg width="18" height="20" viewBox="0 0 18 20" fill="none" xmlns="http://www.w3.org/2000/svg">
    <path fill-rule="evenodd" clip-rule="evenodd" d="M8.99935 1.66667C7.23124 1.66667 5.53555 2.36905 4.2853 3.61929C3.03506 4.86953 2.33268 6.56522 2.33268 8.33333C2.33268 10.915 4.01246 13.4202 5.85431 15.3644C6.75819 16.3185 7.66491 17.0996 8.34658 17.6424C8.60028 17.8444 8.82187 18.0127 8.99935 18.1438C9.17683 18.0127 9.39842 17.8444 9.65212 17.6424C10.3338 17.0996 11.2405 16.3185 12.1444 15.3644C13.9862 13.4202 15.666 10.915 15.666 8.33333C15.666 6.56522 14.9636 4.86953 13.7134 3.61929C12.4632 2.36905 10.7675 1.66667 8.99935 1.66667ZM8.99935 19.1667C8.5371 19.86 8.53665 19.8597 8.53665 19.8597L8.53427 19.8582L8.52871 19.8544L8.50961 19.8415C8.49339 19.8305 8.47025 19.8147 8.44065 19.7942C8.38146 19.7532 8.2964 19.6934 8.18918 19.616C7.9748 19.4612 7.67132 19.2352 7.30837 18.9462C6.58379 18.3692 5.61551 17.5357 4.64439 16.5106C2.73623 14.4965 0.666016 11.585 0.666016 8.33333C0.666016 6.1232 1.54399 4.00358 3.10679 2.44078C4.6696 0.877974 6.78921 0 8.99935 0C11.2095 0 13.3291 0.877974 14.8919 2.44078C16.4547 4.00358 17.3327 6.1232 17.3327 8.33333C17.3327 11.585 15.2625 14.4965 13.3543 16.5106C12.3832 17.5357 11.4149 18.3692 10.6903 18.9462C10.3274 19.2352 10.0239 19.4612 9.80952 19.616C9.7023 19.6934 9.61724 19.7532 9.55805 19.7942C9.52845 19.8147 9.50531 19.8305 9.48908 19.8415L9.46999 19.8544L9.46443 19.8582L9.46267 19.8593C9.46267 19.8593 9.4616 19.86 8.99935 19.1667ZM8.99935 19.1667L9.4616 19.86C9.18168 20.0467 8.81656 20.0464 8.53665 19.8597L8.99935 19.1667ZM8.99935 6.66667C8.07887 6.66667 7.33268 7.41286 7.33268 8.33333C7.33268 9.25381 8.07887 10 8.99935 10C9.91982 10 10.666 9.25381 10.666 8.33333C10.666 7.41286 9.91982 6.66667 8.99935 6.66667ZM5.66602 8.33333C5.66602 6.49238 7.1584 5 8.99935 5C10.8403 5 12.3327 6.49238 12.3327 8.33333C12.3327 10.1743 10.8403 11.6667 8.99935 11.6667C7.1584 11.6667 5.66602 10.1743 5.66602 8.33333Z" fill="#202020"/>
</svg>
