<svg width="18" height="20" viewBox="0 0 18 20" fill="none" xmlns="http://www.w3.org/2000/svg">
    <path d="M2.33398 8.66667V8H1.66732V8.66667H2.33398ZM7.66732 8.66667V8H7.00065V8.66667H7.66732ZM7.66732 14H7.00065V14.6667H7.66732V14ZM17.0007 4.66667H17.6673V4.39067L17.4727 4.19467L17.0007 4.66667ZM13.0007 0.666667L13.4727 0.194667L13.2767 0H13.0007V0.666667ZM2.33398 9.33333H3.66732V8H2.33398V9.33333ZM3.00065 14.6667V11.3333H1.66732V14.6667H3.00065ZM3.00065 11.3333V8.66667H1.66732V11.3333H3.00065ZM3.66732 10.6667H2.33398V12H3.66732V10.6667ZM4.33398 10C4.33398 10.1768 4.26375 10.3464 4.13872 10.4714C4.0137 10.5964 3.84413 10.6667 3.66732 10.6667V12C4.19775 12 4.70646 11.7893 5.08153 11.4142C5.4566 11.0391 5.66732 10.5304 5.66732 10H4.33398ZM3.66732 9.33333C3.84413 9.33333 4.0137 9.40357 4.13872 9.5286C4.26375 9.65362 4.33398 9.82319 4.33398 10H5.66732C5.66732 9.46957 5.4566 8.96086 5.08153 8.58579C4.70646 8.21071 4.19775 8 3.66732 8V9.33333ZM7.00065 8.66667V14H8.33398V8.66667H7.00065ZM7.66732 14.6667H9.00065V13.3333H7.66732V14.6667ZM11.0007 12.6667V10H9.66732V12.6667H11.0007ZM9.00065 8H7.66732V9.33333H9.00065V8ZM11.0007 10C11.0007 9.46957 10.7899 8.96086 10.4149 8.58579C10.0398 8.21071 9.53108 8 9.00065 8V9.33333C9.17746 9.33333 9.34703 9.40357 9.47206 9.5286C9.59708 9.65362 9.66732 9.82319 9.66732 10H11.0007ZM9.00065 14.6667C9.53108 14.6667 10.0398 14.456 10.4149 14.0809C10.7899 13.7058 11.0007 13.1971 11.0007 12.6667H9.66732C9.66732 12.8435 9.59708 13.013 9.47206 13.1381C9.34703 13.2631 9.17746 13.3333 9.00065 13.3333V14.6667ZM12.334 8V14.6667H13.6673V8H12.334ZM13.0007 9.33333H16.334V8H13.0007V9.33333ZM13.0007 12H15.0007V10.6667H13.0007V12ZM1.66732 6.66667V2H0.333984V6.66667H1.66732ZM16.334 4.66667V6.66667H17.6673V4.66667H16.334ZM2.33398 1.33333H13.0007V0H2.33398V1.33333ZM12.5287 1.13867L16.5287 5.13867L17.4727 4.19467L13.4727 0.194667L12.5287 1.13867ZM1.66732 2C1.66732 1.82319 1.73756 1.65362 1.86258 1.5286C1.9876 1.40357 2.15717 1.33333 2.33398 1.33333V0C1.80355 0 1.29484 0.210714 0.919771 0.585786C0.544698 0.960859 0.333984 1.46957 0.333984 2H1.66732ZM0.333984 16V18H1.66732V16H0.333984ZM2.33398 20H15.6673V18.6667H2.33398V20ZM17.6673 18V16H16.334V18H17.6673ZM15.6673 20C16.1978 20 16.7065 19.7893 17.0815 19.4142C17.4566 19.0391 17.6673 18.5304 17.6673 18H16.334C16.334 18.1768 16.2637 18.3464 16.1387 18.4714C16.0137 18.5964 15.8441 18.6667 15.6673 18.6667V20ZM0.333984 18C0.333984 18.5304 0.544698 19.0391 0.919771 19.4142C1.29484 19.7893 1.80355 20 2.33398 20V18.6667C2.15717 18.6667 1.9876 18.5964 1.86258 18.4714C1.73756 18.3464 1.66732 18.1768 1.66732 18H0.333984Z" fill="white"/>
</svg>
