<svg width="20" height="20" viewBox="0 0 20 20" fill="none" xmlns="http://www.w3.org/2000/svg">
    <path fill-rule="evenodd" clip-rule="evenodd" d="M13.6752 4.99841L15.1828 2.94255C15.2853 2.80274 15.4791 2.76711 15.6246 2.86129C17.597 4.13757 18.1392 6.08717 17.3479 7.52437C16.4825 9.09614 15.1477 11.0237 13.1004 13.0711C11.053 15.1185 9.12539 16.4532 7.55362 17.3187C6.11642 18.11 4.16682 17.5678 2.89054 15.5954C2.79636 15.4498 2.83199 15.2561 2.9718 15.1535L5.02766 13.6459C5.32998 13.4242 5.73092 13.3902 6.06624 13.5579L6.88569 13.9676C7.58267 14.3161 8.5381 14.4385 9.44252 13.9732C10.0472 13.6622 10.9791 13.071 12.0397 12.0104C13.1002 10.9499 13.6914 10.0179 14.0025 9.41328C14.4678 8.50885 14.3453 7.55342 13.9969 6.85644L13.5871 6.03699C13.4195 5.70167 13.4534 5.30073 13.6752 4.99841ZM16.7111 1.18215C19.2516 2.82601 20.5594 5.83829 19.0999 8.48902C18.1474 10.219 16.7005 12.2994 14.5146 14.4853C12.3286 16.6713 10.2482 18.1181 8.51827 19.0706C5.86754 20.5301 2.85526 19.2224 1.2114 16.6819C0.541813 15.647 0.795122 14.2696 1.78907 13.5407L3.84493 12.0331C4.7519 11.368 5.9547 11.266 6.96067 11.769L7.78012 12.1788C8.01734 12.2974 8.29174 12.3161 8.52758 12.1948C8.95725 11.9737 9.71868 11.503 10.6255 10.5962C11.5323 9.68943 12.003 8.928 12.224 8.49833C12.3454 8.26249 12.3266 7.98809 12.208 7.75087L11.7983 6.93142C11.2953 5.92545 11.3972 4.72265 12.0623 3.81569L13.57 1.75982C14.2989 0.765875 15.6763 0.512562 16.7111 1.18215Z" fill="#030303"/>
</svg>
