<svg width="130" height="130" viewBox="0 0 130 130" fill="none" xmlns="http://www.w3.org/2000/svg">
    <path d="M65.0006 54.763C70.5798 54.763 75.1298 59.313 75.1298 65.0005C75.1298 70.4171 70.5798 75.0213 65.0006 75.0213C59.4215 75.0213 54.8715 70.4171 54.8715 65.0005C54.8715 59.313 59.4215 54.763 65.0006 54.763ZM39.9215 108.334C43.334 110.392 50.809 107.25 59.4215 99.1255C56.6048 95.9296 53.8423 92.463 51.2423 88.8338C46.8773 88.4161 42.5378 87.7651 38.2423 86.8838C35.4798 98.4755 36.509 106.438 39.9215 108.334ZM43.7673 77.2421L42.1965 74.4796C41.6007 76.0505 41.0048 77.6213 40.6256 79.138C42.0882 79.463 43.7132 79.7338 45.3923 80.0046L43.7673 77.2421ZM79.1923 73.1255L83.5798 65.0005L79.1923 56.8755C77.5673 54.0046 75.834 51.4588 74.2632 48.913C71.3382 48.7505 68.2506 48.7505 65.0006 48.7505C61.7506 48.7505 58.6632 48.7505 55.7381 48.913C54.1673 51.4588 52.434 54.0046 50.809 56.8755L46.4215 65.0005L50.809 73.1255C52.434 75.9963 54.1673 78.5421 55.7381 81.088C58.6632 81.2505 61.7506 81.2505 65.0006 81.2505C68.2506 81.2505 71.3382 81.2505 74.2632 81.088C75.834 78.5421 77.5673 75.9963 79.1923 73.1255ZM65.0006 36.7255C63.9715 37.9171 62.8881 39.163 61.8048 40.6255H68.1965C67.1132 39.163 66.0298 37.9171 65.0006 36.7255ZM65.0006 93.2755C66.0298 92.0838 67.1132 90.838 68.1965 89.3755H61.8048C62.8881 90.838 63.9715 92.0838 65.0006 93.2755ZM90.0257 21.6671C86.6673 19.6088 79.1923 22.7505 70.5798 30.8755C73.3965 34.0713 76.159 37.538 78.759 41.1671C83.2006 41.6005 87.5882 42.2505 91.759 43.1171C94.5215 31.5255 93.4923 23.563 90.0257 21.6671ZM86.234 52.7588L87.8048 55.5213C88.4006 53.9505 88.9965 52.3796 89.3756 50.863C87.9131 50.538 86.2881 50.2671 84.609 49.9963L86.234 52.7588ZM94.0882 14.5713C102.051 19.1213 102.917 31.0921 99.559 45.0671C113.317 49.1296 123.23 55.8463 123.23 65.0005C123.23 74.1546 113.317 80.8713 99.559 84.9338C102.917 98.9088 102.051 110.88 94.0882 115.43C86.1798 119.98 75.4007 114.78 65.0006 104.867C54.6007 114.78 43.8215 119.98 35.859 115.43C27.9506 110.88 27.084 98.9088 30.4423 84.9338C16.684 80.8713 6.77148 74.1546 6.77148 65.0005C6.77148 55.8463 16.684 49.1296 30.4423 45.0671C27.084 31.0921 27.9506 19.1213 35.859 14.5713C43.8215 10.0213 54.6007 15.2213 65.0006 25.1338C75.4007 15.2213 86.1798 10.0213 94.0882 14.5713ZM92.5173 65.0005C94.359 69.063 95.984 73.1255 97.3381 77.2421C108.713 73.8296 115.105 68.9546 115.105 65.0005C115.105 61.0463 108.713 56.1713 97.3381 52.7588C95.984 56.8755 94.359 60.938 92.5173 65.0005ZM37.484 65.0005C35.6423 60.938 34.0173 56.8755 32.6632 52.7588C21.2882 56.1713 14.8965 61.0463 14.8965 65.0005C14.8965 68.9546 21.2882 73.8296 32.6632 77.2421C34.0173 73.1255 35.6423 69.063 37.484 65.0005ZM86.234 77.2421L84.609 80.0046C86.2881 79.7338 87.9131 79.463 89.3756 79.138C88.9965 77.6213 88.4006 76.0505 87.8048 74.4796L86.234 77.2421ZM70.5798 99.1255C79.1923 107.25 86.6673 110.392 90.0257 108.334C93.4923 106.438 94.5215 98.4755 91.759 86.8838C87.5882 87.7505 83.2006 88.4005 78.759 88.8338C76.159 92.463 73.3965 95.9296 70.5798 99.1255ZM43.7673 52.7588L45.3923 49.9963C43.7132 50.2671 42.0882 50.538 40.6256 50.863C41.0048 52.3796 41.6007 53.9505 42.1965 55.5213L43.7673 52.7588ZM59.4215 30.8755C50.809 22.7505 43.334 19.6088 39.9215 21.6671C36.509 23.563 35.4798 31.5255 38.2423 43.1171C42.5378 42.2358 46.8773 41.5849 51.2423 41.1671C53.8423 37.538 56.6048 34.0713 59.4215 30.8755Z" fill="#D6CDE1" fill-opacity="0.3"/>
</svg>
