<svg width="17" height="20" viewBox="0 0 17 20" fill="none" xmlns="http://www.w3.org/2000/svg">
    <path fill-rule="evenodd" clip-rule="evenodd" d="M7.20621 1.16887C7.58582 0.950115 8.01627 0.834961 8.45443 0.834961C8.8926 0.834961 9.32306 0.950124 9.70269 1.16889C9.70327 1.16923 9.70385 1.16956 9.70443 1.1699L15.5378 4.50322C15.8461 4.68124 16.112 4.92254 16.3185 5.21022C16.3688 5.26052 16.4135 5.31815 16.4508 5.38265C16.4829 5.43821 16.5079 5.49593 16.5261 5.55476C16.6975 5.89932 16.7874 6.27949 16.7878 6.66573V13.3341C16.7873 13.7725 16.6716 14.2031 16.4522 14.5827C16.2328 14.9622 15.9174 15.2774 15.5378 15.4966L15.5345 15.4985L9.70443 18.8299C9.70393 18.8302 9.70343 18.8305 9.70293 18.8308C9.43858 18.9832 9.14957 19.0853 8.85047 19.1333C8.73267 19.1971 8.59778 19.2333 8.45443 19.2333C8.31108 19.2333 8.17618 19.1971 8.05838 19.1333C7.7593 19.0853 7.4703 18.9832 7.20597 18.8308C7.20545 18.8305 7.20494 18.8302 7.20443 18.8299L1.37431 15.4985L1.37109 15.4966C0.991422 15.2774 0.676069 14.9622 0.456671 14.5827C0.237272 14.2031 0.121543 13.7725 0.121094 13.3341V6.66573C0.12149 6.27949 0.211364 5.89932 0.382777 5.55476C0.400939 5.49593 0.425948 5.43821 0.458087 5.38265C0.495398 5.31815 0.540031 5.26052 0.590327 5.21022C0.796873 4.92254 1.06278 4.68124 1.37109 4.50323L1.37431 4.50138L7.20621 1.16887ZM1.78776 7.11453V13.3328C1.78797 13.4788 1.82655 13.6222 1.89962 13.7486C1.9725 13.8747 2.07714 13.9794 2.20311 14.0525C2.20355 14.0527 2.20399 14.053 2.20443 14.0532L7.62109 17.1485V10.4889L1.78776 7.11453ZM9.28776 10.4889V17.1485L14.7044 14.0532C14.7049 14.053 14.7053 14.0527 14.7057 14.0525C14.8317 13.9794 14.9364 13.8747 15.0092 13.7486C15.0824 13.6221 15.1209 13.4785 15.1211 13.3324V7.11453L9.28776 10.4889ZM14.2553 5.68995L8.87109 2.61328C8.74441 2.54014 8.60071 2.50163 8.45443 2.50163C8.30815 2.50163 8.16444 2.54013 8.03776 2.61327L8.03455 2.61513L2.65359 5.68995L8.45443 9.04554L14.2553 5.68995Z" fill="white"/>
</svg>
