<svg width="32" height="32" viewBox="0 0 32 32" fill="none" xmlns="http://www.w3.org/2000/svg">
    <rect x="32" y="32" width="32" height="32" rx="16" transform="rotate(-180 32 32)" fill="#F7F7F7"/>
    <path fill-rule="evenodd" clip-rule="evenodd" d="M13.0132 9.41502C13.2273 9.29816 13.488 9.3075 13.6932 9.43938L23.0265 15.4394C23.2173 15.562 23.3327 15.7733 23.3327 16.0002C23.3327 16.227 23.2173 16.4383 23.0265 16.5609L13.6932 22.5609C13.488 22.6928 13.2273 22.7022 13.0132 22.5853C12.7992 22.4684 12.666 22.244 12.666 22.0002L12.666 10.0002C12.666 9.75629 12.7992 9.53188 13.0132 9.41502ZM13.9993 11.2213L13.9993 20.7791L21.4332 16.0002L13.9993 11.2213Z" fill="#202020" fill-opacity="0.48"/>
</svg>