<svg width="19" height="18" viewBox="0 0 19 18" fill="none" xmlns="http://www.w3.org/2000/svg">
    <path fill-rule="evenodd" clip-rule="evenodd" d="M9.4395 2.40096C8.00837 2.19796 6.55003 2.4656 5.28424 3.16355C4.01845 3.86149 3.01379 4.95193 2.42165 6.27053C1.82952 7.58914 1.68198 9.06448 2.00129 10.4742C2.32059 11.884 3.08943 13.1518 4.19194 14.0865C5.29446 15.0213 6.67093 15.5724 8.11392 15.6568C9.55691 15.7413 10.9882 15.3544 12.1922 14.5546C13.3962 13.7547 14.3077 12.5852 14.7892 11.2223C14.9425 10.7884 15.4185 10.5609 15.8525 10.7142C16.2864 10.8675 16.514 11.3436 16.3606 11.7775C15.7588 13.4812 14.6195 14.943 13.1145 15.9428C11.6095 16.9426 9.82032 17.4262 8.01658 17.3207C6.21284 17.2151 4.49226 16.5262 3.11411 15.3578C1.73597 14.1893 0.774919 12.6046 0.375791 10.8424C-0.0233366 9.08021 0.16108 7.23604 0.901251 5.58778C1.64142 3.93952 2.89725 2.57648 4.47948 1.70405C6.06172 0.831616 7.88465 0.497066 9.67356 0.750809C11.4582 1.00395 13.1125 1.82889 14.3885 3.10171L16.8332 5.40386V2.33326C16.8332 1.87303 17.2063 1.49993 17.6666 1.49993C18.1268 1.49993 18.4999 1.87303 18.4999 2.33326V7.33326C18.4999 7.7935 18.1268 8.1666 17.6666 8.1666H12.6666C12.2063 8.1666 11.8332 7.7935 11.8332 7.33326C11.8332 6.87303 12.2063 6.49993 12.6666 6.49993H15.5661L13.2369 4.30661C13.2308 4.30083 13.2248 4.29496 13.2188 4.289C12.197 3.26658 10.8706 2.60395 9.4395 2.40096Z" fill="white"/>
</svg>
