<svg width="20" height="20" viewBox="0 0 20 20" fill="none" xmlns="http://www.w3.org/2000/svg">
    <path fill-rule="evenodd" clip-rule="evenodd" d="M14.9993 2.49967C14.0789 2.49967 13.3327 3.24587 13.3327 4.16634C13.3327 4.45576 13.4065 4.72795 13.5362 4.96513C13.5447 4.978 13.5529 4.99117 13.5608 5.00465C13.5686 5.01803 13.576 5.03153 13.5829 5.04515C13.877 5.51813 14.4014 5.83301 14.9993 5.83301C15.9198 5.83301 16.666 5.08682 16.666 4.16634C16.666 3.24587 15.9198 2.49967 14.9993 2.49967ZM12.6311 6.51205C13.2352 7.12191 14.0731 7.49967 14.9993 7.49967C16.8403 7.49967 18.3327 6.00729 18.3327 4.16634C18.3327 2.32539 16.8403 0.833008 14.9993 0.833008C13.1584 0.833008 11.666 2.32539 11.666 4.16634C11.666 4.48052 11.7095 4.78455 11.7907 5.07274L7.36763 7.65396C6.76355 7.04411 5.92556 6.66634 4.99935 6.66634C3.1584 6.66634 1.66602 8.15872 1.66602 9.99967C1.66602 11.8406 3.1584 13.333 4.99935 13.333C5.92574 13.333 6.76386 12.9551 7.36797 12.345L11.7918 14.9229C11.7099 15.2122 11.666 15.5175 11.666 15.833C11.666 17.674 13.1584 19.1663 14.9993 19.1663C16.8403 19.1663 18.3327 17.674 18.3327 15.833C18.3327 13.9921 16.8403 12.4997 14.9993 12.4997C14.0745 12.4997 13.2377 12.8763 12.6338 13.4846L8.2081 10.9056C8.28926 10.6176 8.33268 10.3137 8.33268 9.99967C8.33268 9.68549 8.28922 9.38146 8.20797 9.09327L12.6311 6.51205ZM6.41576 9.12087C6.42275 9.13448 6.43014 9.14799 6.43794 9.16136C6.44581 9.17484 6.45399 9.18801 6.46248 9.20088C6.59224 9.43806 6.66602 9.71025 6.66602 9.99967C6.66602 10.2891 6.59225 10.5613 6.46248 10.7985C6.4539 10.8115 6.44562 10.8248 6.43768 10.8384C6.42997 10.8517 6.42267 10.865 6.41577 10.8785C6.12168 11.3515 5.59729 11.6663 4.99935 11.6663C4.07887 11.6663 3.33268 10.9201 3.33268 9.99967C3.33268 9.0792 4.07887 8.33301 4.99935 8.33301C5.59729 8.33301 6.12168 8.64788 6.41576 9.12087ZM13.5121 15.08C13.5326 15.053 13.5518 15.0244 13.5694 14.9942C13.5862 14.9654 13.6011 14.9359 13.6141 14.906C13.9132 14.4599 14.422 14.1663 14.9993 14.1663C15.9198 14.1663 16.666 14.9125 16.666 15.833C16.666 16.7535 15.9198 17.4997 14.9993 17.4997C14.0789 17.4997 13.3327 16.7535 13.3327 15.833C13.3327 15.5621 13.3973 15.3062 13.5121 15.08Z" fill="white"/>
</svg>
