<svg width="20" height="20" viewBox="0 0 20 20" fill="none" xmlns="http://www.w3.org/2000/svg">
    <path fill-rule="evenodd" clip-rule="evenodd" d="M10 4C8.75736 4 7.75 5.00736 7.75 6.25C7.75 7.49264 8.75736 8.5 10 8.5C11.2426 8.5 12.25 7.49264 12.25 6.25C12.25 5.00736 11.2426 4 10 4ZM6.25 6.25C6.25 4.17893 7.92893 2.5 10 2.5C12.0711 2.5 13.75 4.17893 13.75 6.25C13.75 8.32107 12.0711 10 10 10C7.92893 10 6.25 8.32107 6.25 6.25ZM4.34835 12.5984C5.05161 11.8951 6.00544 11.5 7 11.5H13C13.9946 11.5 14.9484 11.8951 15.6517 12.5984C16.3549 13.3016 16.75 14.2554 16.75 15.25V16.75C16.75 17.1642 16.4142 17.5 16 17.5C15.5858 17.5 15.25 17.1642 15.25 16.75V15.25C15.25 14.6533 15.0129 14.081 14.591 13.659C14.169 13.2371 13.5967 13 13 13H7C6.40326 13 5.83097 13.2371 5.40901 13.659C4.98705 14.081 4.75 14.6533 4.75 15.25V16.75C4.75 17.1642 4.41421 17.5 4 17.5C3.58579 17.5 3.25 17.1642 3.25 16.75V15.25C3.25 14.2554 3.64509 13.3016 4.34835 12.5984Z" fill="#A490BB"/>
    <circle cx="10" cy="10" r="9.25" stroke="#A490BB" stroke-width="1.5"/>
</svg>
