<svg width="20" height="20" viewBox="0 0 20 20" fill="none" xmlns="http://www.w3.org/2000/svg">
    <path fill-rule="evenodd" clip-rule="evenodd" d="M2 4.17071V3C2 1.34315 3.34315 0 5 0H17C18.6569 0 20 1.34315 20 3V17C20 18.6569 18.6569 20 17 20H3C1.34315 20 0 18.6569 0 17V7C0 5.69378 0.834808 4.58254 2 4.17071ZM18 3C18 2.44772 17.5523 2 17 2H5C4.44772 2 4 2.44772 4 3V4H17C17.5523 4 18 3.55228 18 3ZM18 5.82929C17.6872 5.93985 17.3506 6 17 6H3C2.44771 6 2 6.44771 2 7V9H5C6.65685 9 8 10.3431 8 12C8 13.6569 6.65685 15 5 15H2V17C2 17.5523 2.44771 18 3 18H17C17.5523 18 18 17.5523 18 17V5.82929ZM5 11H2V13H5C5.55228 13 6 12.5523 6 12C6 11.4477 5.55228 11 5 11Z" fill="#030303"/>
</svg>
