<svg width="20" height="18" viewBox="0 0 20 18" fill="none" xmlns="http://www.w3.org/2000/svg">
    <path fill-rule="evenodd" clip-rule="evenodd" d="M11.2255 0.902589C10.8511 0.691795 10.4287 0.581055 9.99905 0.581055C9.56938 0.581055 9.14696 0.691795 8.77255 0.902589C8.39814 1.11338 8.08438 1.41712 7.86155 1.78448L7.85915 1.78844L0.800821 13.5718L0.794054 13.5833C0.575764 13.9613 0.460262 14.3899 0.45904 14.8264C0.457817 15.263 0.570917 15.6922 0.787086 16.0714C1.00326 16.4507 1.31496 16.7667 1.69119 16.9881C2.06742 17.2095 2.49505 17.3285 2.93155 17.3333L2.94071 17.3334L17.0665 17.3333C17.503 17.3285 17.9307 17.2095 18.3069 16.9881C18.6831 16.7667 18.9948 16.4507 19.211 16.0714C19.4272 15.6922 19.5403 15.263 19.5391 14.8264C19.5378 14.3899 19.4223 13.9613 19.204 13.5833L19.1973 13.5718L12.1366 1.78448C11.9137 1.41711 11.5999 1.11338 11.2255 0.902589ZM9.99905 2.24772C10.1423 2.24772 10.2831 2.28463 10.4079 2.3549C10.5321 2.42485 10.6363 2.52549 10.7105 2.64721L17.7635 14.4215C17.8345 14.5464 17.872 14.6874 17.8724 14.8311C17.8728 14.9766 17.8351 15.1197 17.763 15.2461C17.691 15.3725 17.5871 15.4779 17.4617 15.5517C17.3374 15.6248 17.1962 15.6644 17.052 15.6667H2.94604C2.80188 15.6644 2.66073 15.6248 2.53642 15.5517C2.41101 15.4779 2.30711 15.3725 2.23505 15.2461C2.16299 15.1197 2.12529 14.9766 2.1257 14.8311C2.1261 14.6875 2.16363 14.5464 2.23459 14.4216L9.28655 2.64886C9.28688 2.64831 9.28722 2.64776 9.28755 2.64721C9.36177 2.52549 9.46598 2.42485 9.59021 2.3549C9.71502 2.28463 9.85582 2.24772 9.99905 2.24772ZM9.99905 5.66667C9.53881 5.66667 9.16571 6.03977 9.16571 6.50001V9.83334C9.16571 10.2936 9.53881 10.6667 9.99905 10.6667C10.4593 10.6667 10.8324 10.2936 10.8324 9.83334V6.50001C10.8324 6.03977 10.4593 5.66667 9.99905 5.66667ZM10.8324 13.1667C10.8324 12.7064 10.4593 12.3333 9.99905 12.3333H9.99071C9.53047 12.3333 9.15738 12.7064 9.15738 13.1667C9.15738 13.6269 9.53047 14 9.99071 14H9.99905C10.4593 14 10.8324 13.6269 10.8324 13.1667Z" fill="#8E8E8E" fill-opacity="0.72"/>
</svg>
