<svg width="9" height="13" viewBox="0 0 9 13" fill="none" xmlns="http://www.w3.org/2000/svg">
    <path fill-rule="evenodd" clip-rule="evenodd" d="M8.25 0.875C8.59518 0.875 8.875 1.15482 8.875 1.5V11.5C8.875 11.8452 8.59518 12.125 8.25 12.125C7.90482 12.125 7.625 11.8452 7.625 11.5V1.5C7.625 1.15482 7.90482 0.875 8.25 0.875ZM4.5 4.625C4.84518 4.625 5.125 4.90482 5.125 5.25V11.5C5.125 11.8452 4.84518 12.125 4.5 12.125C4.15482 12.125 3.875 11.8452 3.875 11.5V5.25C3.875 4.90482 4.15482 4.625 4.5 4.625ZM0.75 8.375C1.09518 8.375 1.375 8.65482 1.375 9V11.5C1.375 11.8452 1.09518 12.125 0.75 12.125C0.404822 12.125 0.125 11.8452 0.125 11.5V9C0.125 8.65482 0.404822 8.375 0.75 8.375Z" fill="white"/>
</svg>